<svg id="Layer_1" data-name="Layer 1" xmlns="http://www.w3.org/2000/svg" viewBox="0 0 992.13 992.13"><title>er logo 02</title><g id="lines_3" data-name="lines 3"><polyline points="100.8 336.66 101.72 334.69 102.9 332.85 104.34 331.28 105.92 329.83 107.89 328.78 109.86 328 112.09 327.47 114.19 327.34 116.42 327.6 118.52 328.13 120.49 329.05 122.33 330.23 123.9 331.67 125.34 333.25 126.39 335.21 127.18 337.18 127.71 339.42 127.84 341.51 127.58 343.75 127.05 345.85 127.05 345.71 123.51 356.61 120.23 367.37 117.34 378.4 114.71 389.42 112.35 400.58 110.38 411.73 108.81 423.02 107.36 434.31 106.44 445.6 105.79 457.02 105.39 468.3 105.39 479.72 105.79 491.01 106.44 502.43 107.36 513.72 108.68 525 110.38 536.29 112.35 547.45 114.58 558.6 117.21 569.63 120.23 580.52 123.51 591.42 127.05 602.31 130.86 612.94 135.06 623.44 139.65 633.94 144.38 644.18 149.5 654.42 154.88 664.39 160.52 674.24 166.56 683.95 172.73 693.4 179.29 702.72 186.11 711.77 193.07 720.7 200.42 729.49 201.73 731.2 202.78 733.17 203.44 735.27 203.83 737.37 203.83 739.6 203.44 741.7 202.78 743.8 201.86 745.77 200.55 747.47 198.98 749.05 197.27 750.36 195.3 751.41 193.2 752.07 191.1 752.46 188.87 752.46 186.77 752.07 184.67 751.41 182.7 750.49 181 749.18 179.42 747.61 179.55 747.61 171.94 738.55 164.59 729.23 157.5 719.78 150.68 710.07 144.11 700.22 137.81 690.12 131.91 679.88 126.13 669.51 120.75 659.01 115.76 648.25 110.91 637.49 106.44 626.46 102.24 615.44 98.44 604.28 94.89 592.86 91.74 581.44 88.86 570.02 86.23 558.47 84.13 546.79 82.16 535.11 80.59 523.43 79.41 511.62 78.49 499.8 77.96 487.99 77.7 476.18 77.83 464.24 78.23 452.42 79.01 440.61 80.19 428.8 81.64 417.12 83.34 405.43 85.44 393.75 87.94 382.2 90.69 370.65 93.84 359.23 97.26 347.81 100.93 336.66" fill="#f7c87f"/><polyline points="229.29 796.56 238.48 803.91 247.8 811 257.38 817.83 267.1 824.39 277.07 830.69 287.18 836.59 297.42 842.37 307.78 847.75 318.28 852.87 329.05 857.73 339.81 862.32 350.83 866.52 361.86 870.46 373.01 874 384.3 877.28 395.72 880.3 407.14 882.92 418.56 885.29 430.24 887.26 441.79 888.96 453.47 890.27 465.15 891.33 476.83 892.11 488.65 892.38 500.33 892.51 512.01 892.24 523.82 891.59 535.5 890.67 547.18 889.36 558.74 887.78 570.42 885.81 581.84 883.58 593.39 881.09 604.67 878.07 615.96 874.92 627.25 871.38 638.27 867.57 649.3 863.37 660.19 858.91 670.82 854.18 681.46 849.19 691.96 843.81 702.19 838.17 712.3 832.26 722.27 825.96 732.12 819.53 741.7 812.84 751.15 805.75 760.34 798.53 769.26 790.92 778.06 783.17 786.59 775.04 794.99 766.77 802.99 758.37 810.87 749.57 818.48 740.65 825.83 731.46 832.92 722.14 839.74 712.56 846.31 702.85 852.61 693 858.64 682.9 864.29 672.66 869.8 662.16 874.92 651.66 879.77 640.9 884.24 630.14 888.44 619.11 892.38 608.09 896.05 596.93 899.33 585.64 902.22 574.35 902.35 574.35 902.74 572.25 902.74 570.02 902.35 567.92 901.69 565.82 900.77 563.85 899.46 562.15 897.89 560.57 896.18 559.26 894.21 558.21 892.11 557.55 890.01 557.16 887.78 557.16 885.68 557.55 883.58 558.21 881.61 559.13 879.91 560.44 878.33 562.02 877.02 563.72 875.97 565.69 875.31 567.79 875.31 567.66 872.56 578.55 869.27 589.32 865.86 600.08 862.06 610.71 857.99 621.21 853.52 631.58 848.93 641.82 843.94 651.92 838.56 661.9 833.05 671.74 827.27 681.32 821.11 690.77 814.67 700.09 808.11 709.15 801.16 718.07 793.94 726.74 786.59 735.27 778.97 743.54 770.97 751.54 762.96 759.42 754.56 767.03 746.03 774.25 737.24 781.34 728.31 788.16 719.12 794.73 709.8 801.02 700.22 807.06 690.51 812.84 680.67 818.35 670.69 823.47 660.46 828.46 650.22 833.05 639.85 837.25 629.22 841.32 618.59 844.99 607.82 848.41 597.06 851.42 586.04 854.18 575.14 856.67 563.99 858.77 552.83 860.48 541.67 862.06 530.52 863.11 519.23 864.02 507.94 864.55 496.79 864.68 485.5 864.55 474.21 864.02 462.92 863.24 451.77 862.19 440.61 860.74 429.45 858.91 418.3 856.81 407.4 854.44 396.38 851.69 385.62 848.67 374.85 845.39 364.09 841.71 353.59 837.77 343.09 833.44 332.85 828.85 322.62 823.99 312.64 818.88 302.8 813.49 293.08 807.72 283.5 801.81 274.18 795.51 265 788.95 255.94 782.12 247.15 775.04 247.15 775.17 245.31 773.99 243.34 772.94 241.24 772.41 239.14 772.02 236.91 772.02 234.81 772.41 232.71 773.2 230.74 774.25 229.03 775.43 227.46 777.01 226.28 778.84 225.23 780.81 224.7 782.91 224.31 785.01 224.31 787.24 224.7 789.34 225.49 791.44 226.54 793.41 227.72 795.12 229.29 796.69" fill="#f7c87f"/><polygon points="914.42 457.41 914.29 455.31 913.77 453.21 912.98 451.24 911.93 449.4 910.49 447.7 908.91 446.38 907.21 445.2 905.24 444.28 903.14 443.76 901.04 443.5 898.94 443.63 896.84 444.02 894.87 444.68 892.9 445.73 891.19 447.04 889.75 448.62 888.57 450.32 887.65 452.16 886.99 454.26 886.6 456.36 886.6 458.46 886.99 460.56 887.65 462.66 888.57 464.5 889.75 466.2 891.19 467.78 892.9 469.09 894.87 470.14 896.84 470.8 898.94 471.19 901.04 471.32 903.14 471.06 905.24 470.54 907.21 469.62 908.91 468.44 910.49 467.12 911.93 465.42 912.98 463.58 913.77 461.61 914.29 459.51 914.42 457.41" fill="#f7c87f"/></g><g id="lines_2" data-name="lines 2"><polyline points="175.09 280.22 176.14 278.78 177.58 277.6 179.03 276.68 180.73 276.02 182.57 275.76 184.41 275.89 186.11 276.28 187.69 277.07 189.13 278.12 190.31 279.56 191.23 281.01 191.89 282.71 192.15 284.55 192.02 286.39 191.63 288.1 190.84 289.67 185.46 298.99 180.34 308.57 175.48 318.15 170.89 327.87 166.56 337.84 162.62 347.81 158.94 358.05 155.53 368.29 152.51 378.66 149.76 389.03 147.4 399.53 145.29 410.16 143.59 420.79 142.01 431.55 140.96 442.18 140.18 452.95 139.65 463.71 139.52 474.6 139.65 485.37 140.18 496.13 141.09 506.89 142.15 517.65 143.72 528.28 143.59 528.28 143.72 530.12 143.46 531.96 142.8 533.67 141.88 535.11 140.7 536.55 139.26 537.6 137.68 538.39 135.98 538.78 134.14 538.92 132.3 538.65 130.59 538 129.15 537.08 127.71 535.9 126.66 534.45 125.87 532.88 125.48 531.17 125.34 531.17 123.77 519.88 122.59 508.6 121.67 497.31 121.14 485.89 121.01 474.6 121.14 463.19 121.67 451.9 122.46 440.61 123.64 429.32 125.21 418.03 127.05 406.88 129.28 395.72 131.78 384.56 134.66 373.67 137.94 362.78 141.49 351.88 145.29 341.25 149.5 330.75 153.96 320.25 158.81 310.01 163.93 299.91 169.31 289.93 175.09 280.09" fill="#fff1a1"/><polyline points="159.08 590.89 158.29 589.32 157.24 587.87 155.93 586.56 154.48 585.64 152.78 584.99 150.94 584.72 149.1 584.85 147.4 585.25 145.82 586.04 144.38 587.09 143.06 588.4 142.15 589.84 141.49 591.55 141.23 593.39 141.36 595.22 141.75 596.93 141.49 596.93 145.29 607.3 149.36 617.67 153.83 627.77 158.55 637.88 163.54 647.72 168.79 657.44 174.3 667.15 180.21 676.47 186.38 685.79 192.68 694.84 199.37 703.77 206.33 712.43 213.41 720.83 220.9 729.1 228.51 737.11 236.38 744.85 244.52 752.46 252.92 759.81 261.45 766.77 270.25 773.59 279.17 780.16 288.36 786.46 297.68 792.49 307.13 798.14 316.84 803.65 326.68 808.77 336.66 813.63 346.76 818.22 357 822.42 367.37 826.49 377.74 830.03 388.37 833.44 399 836.46 409.77 839.22 420.66 841.58 431.55 843.55 442.45 845.39 453.47 846.83 464.5 847.88 475.65 848.67 486.68 849.06 497.83 849.19 508.86 848.93 519.88 848.41 531.04 847.62 531.17 847.49 532.88 847.09 534.59 846.44 536.03 845.39 537.34 844.21 538.39 842.63 539.05 841.06 539.44 839.22 539.44 837.38 539.05 835.67 538.39 833.97 537.34 832.52 536.16 831.21 534.59 830.16 533.01 829.51 531.17 829.11 529.34 829.11 529.34 828.98 518.7 829.9 507.94 830.42 497.05 830.56 486.29 830.42 475.52 829.9 464.76 829.11 454.13 828.06 443.37 826.62 432.73 824.91 422.23 822.81 411.6 820.45 401.23 817.69 390.87 814.67 380.63 811.26 370.52 807.72 360.42 803.78 350.57 799.45 340.73 794.86 331.15 790.13 321.7 784.88 312.38 779.5 303.19 773.86 294.26 767.82 285.47 761.65 276.81 755.09 268.41 748.39 260.27 741.3 252.26 734.09 244.52 726.61 237.04 718.86 229.69 710.86 222.6 702.72 215.91 694.32 209.34 685.79 203.04 676.99 197.01 668.07 191.36 658.88 185.85 649.69 180.73 640.24 175.88 630.53 171.28 620.82 166.95 610.97 163.01 600.87 159.34 590.76" fill="#fff1a1"/><polyline points="751.81 722.4 743.93 730.41 735.66 738.02 727.26 745.5 718.6 752.59 709.8 759.42 700.75 765.98 691.43 772.28 681.98 778.32 672.27 783.96 662.42 789.34 652.45 794.46 642.34 799.19 631.97 803.65 621.61 807.72 611.1 811.52 600.34 814.94 589.58 818.09 589.58 818.22 587.87 818.88 586.3 819.92 584.99 821.11 583.93 822.55 583.28 824.26 582.88 825.96 582.75 827.8 583.02 829.51 583.67 831.21 584.72 832.79 585.9 834.1 587.35 835.15 589.05 835.81 590.76 836.2 592.6 836.33 594.3 836.07 594.44 836.07 605.2 833.05 615.83 829.64 626.33 825.83 636.7 821.89 646.94 817.56 657.04 812.84 667.15 807.98 676.99 802.73 686.57 797.22 696.15 791.44 705.47 785.41 714.66 778.98 723.59 772.41 732.38 765.46 740.91 758.37 749.18 751.02 757.32 743.27 765.19 735.4 765.06 735.4 766.24 733.96 767.03 732.38 767.56 730.67 767.69 728.84 767.42 727 766.9 725.29 766.11 723.72 764.93 722.4 763.49 721.22 761.91 720.44 760.21 719.91 758.37 719.78 756.53 720.04 754.82 720.57 753.25 721.36 751.94 722.54" fill="#fff1a1"/><polyline points="844.47 612.81 844.99 611.1 845.13 609.27 844.86 607.43 844.34 605.72 843.55 604.15 842.37 602.84 840.92 601.65 839.35 600.87 837.64 600.34 835.81 600.21 833.97 600.47 832.26 601 830.69 601.79 829.38 602.97 828.19 604.41 827.41 605.99 827.41 605.85 822.68 617.14 817.56 628.3 812.05 639.32 806.14 650.09 799.98 660.59 793.28 670.96 786.33 681.06 786.46 681.19 785.54 682.77 785.01 684.47 784.75 686.31 784.88 688.15 785.41 689.86 786.19 691.43 787.24 692.87 788.56 694.05 790.13 694.97 791.84 695.5 793.67 695.76 795.51 695.63 797.22 695.11 798.79 694.32 800.24 693.27 801.42 691.96 801.55 691.82 807.98 682.64 814.15 673.05 819.92 663.47 825.44 653.63 830.69 643.65 835.67 633.42 840.4 623.18 844.73 612.81" fill="#fff1a1"/><polygon points="870.72 489.96 870.59 488.25 870.06 486.55 869.27 484.97 868.23 483.66 866.91 482.48 865.34 481.56 863.76 481.04 861.92 480.77 860.22 480.9 858.51 481.3 856.94 481.95 855.49 483 854.31 484.32 853.39 485.76 852.74 487.33 852.34 489.04 852.34 490.88 852.74 492.58 853.39 494.16 854.31 495.6 855.49 496.92 856.94 497.97 858.51 498.62 860.22 499.02 861.92 499.15 863.76 498.88 865.34 498.36 866.91 497.44 868.23 496.26 869.27 494.95 870.06 493.37 870.59 491.67 870.72 489.96" fill="#fff1a1"/></g><g id="lines_1" data-name="lines 1"><polyline points="290.46 250.29 292.3 248.46 293.74 246.36 294.92 244.13 295.71 241.76 296.37 239.27 296.5 236.78 296.37 234.28 295.84 231.79 295.05 229.43 293.87 227.19 292.43 225.09 290.72 223.26 288.75 221.68 286.65 220.24 284.29 219.32 281.93 218.53 279.43 218.14 276.94 218.14 274.31 218.53 271.95 219.19 269.59 220.11 267.49 221.42 265.52 223 265.52 222.86 257.78 230.21 250.43 237.69 243.08 245.44 236.12 253.45 229.43 261.58 223 269.98 216.69 278.65 210.79 287.44 205.15 296.37 199.76 305.55 194.65 314.74 189.79 324.19 185.33 333.9 181.13 343.62 177.19 353.46 173.65 363.43 170.36 373.54 167.34 383.65 164.72 393.88 162.36 404.25 160.39 414.75 160.26 414.62 160 417.25 160.13 419.74 160.52 422.23 161.31 424.6 162.36 426.96 163.67 429.06 165.38 430.9 167.21 432.6 169.31 434.05 171.68 435.1 174.04 435.88 176.53 436.28 179.03 436.41 181.52 436.15 184.01 435.62 186.38 434.7 188.61 433.39 190.58 431.95 192.41 430.11 193.99 428.14 195.17 425.91 196.09 423.55 196.75 421.18 197.01 421.18 198.98 411.47 201.21 401.76 203.7 392.18 206.46 382.73 209.61 373.28 213.02 363.96 216.83 354.77 220.9 345.71 225.23 336.79 229.82 328 234.68 319.46 239.93 310.93 245.44 302.67 251.08 294.66 257.12 286.65 263.29 279.04 269.85 271.56 276.55 264.21 283.5 257.12 290.72 250.3" fill="#b7da80"/><polyline points="423.55 769.26 425.91 770.05 428.14 771.1 430.24 772.54 432.21 774.12 433.92 776.09 435.23 778.19 436.28 780.55 437.07 782.91 437.46 785.41 437.59 787.9 437.33 790.39 436.67 792.89 435.75 795.25 434.57 797.48 433 799.45 431.16 801.16 429.19 802.73 426.96 803.91 424.6 804.83 422.23 805.49 419.74 805.75 417.12 805.62 414.62 805.23 414.75 805.23 404.38 802.47 394.15 799.45 384.04 796.17 374.06 792.49 364.22 788.56 354.38 784.22 344.8 779.63 335.21 774.77 325.9 769.52 316.84 764.14 307.78 758.37 298.99 752.33 290.46 746.03 282.06 739.47 273.79 732.64 265.78 725.55 258.04 718.21 250.56 710.59 243.34 702.85 236.25 694.84 229.43 686.57 223 678.17 216.69 669.51 210.79 660.72 205.01 651.66 199.63 642.47 194.51 633.15 189.66 623.57 185.19 613.99 180.86 604.15 177.06 594.17 173.38 584.2 170.1 574.09 167.21 563.85 164.46 553.49 162.23 542.99 160.26 532.62 158.55 521.99 157.24 511.49 156.19 500.85 155.53 490.22 155.66 487.6 156.06 485.1 156.71 482.74 157.76 480.51 159.21 478.28 160.78 476.44 162.62 474.74 164.72 473.29 167.08 472.24 169.44 471.32 171.94 470.93 174.43 470.8 176.93 471.06 179.42 471.58 181.78 472.5 184.01 473.69 185.98 475.26 187.82 476.97 189.4 478.94 190.71 481.17 191.63 483.53 192.28 485.89 192.54 488.38 192.81 488.38 193.33 498.36 194.38 508.33 195.69 518.18 197.27 528.15 199.24 537.87 201.47 547.58 204.09 557.29 206.98 566.87 210.13 576.32 213.68 585.64 217.48 594.83 221.55 604.02 226.01 612.94 230.74 621.74 235.73 630.4 240.98 638.8 246.49 647.2 252.4 655.21 258.43 663.21 264.86 670.96 271.43 678.44 278.25 685.65 285.34 692.74 292.69 699.57 300.17 706.13 307.92 712.43 315.79 718.47 323.93 724.24 332.33 729.75 340.73 735 349.39 739.99 358.31 744.72 367.24 749.05 376.3 753.12 385.62 756.92 394.93 760.47 404.38 763.62 413.96 766.51 423.68 769" fill="#b7da80"/><polyline points="492.72 778.06 490.09 778.19 487.6 778.71 485.24 779.5 483 780.68 480.9 782.12 479.07 783.83 477.49 785.67 476.18 787.9 475.13 790.13 474.34 792.62 473.95 795.12 473.95 797.61 474.34 800.11 475 802.6 475.92 804.83 477.23 807.06 478.8 809.03 480.64 810.74 482.61 812.31 484.84 813.49 487.2 814.28 489.7 814.81 492.19 815.07 502.95 814.94 513.59 814.67 524.35 813.89 534.98 812.84 545.61 811.39 556.11 809.69 566.61 807.72 577.11 805.23 587.48 802.6 597.72 799.58 607.82 796.17 617.93 792.49 627.9 788.56 637.62 784.22 647.33 779.63 656.91 774.77 666.23 769.52 675.42 764.01 684.47 758.24 693.27 752.2 701.93 745.9 710.33 739.34 718.6 732.38 726.47 725.29 734.35 717.94 741.83 710.33 749.18 702.59 756.14 694.45 762.96 686.18 769.52 677.65 775.82 668.99 775.82 669.12 777.14 666.89 778.06 664.52 778.71 662.16 779.11 659.67 779.11 657.17 778.71 654.55 778.06 652.19 777.01 649.82 775.69 647.72 773.99 645.75 772.15 644.05 770.18 642.61 767.82 641.42 765.46 640.64 762.96 640.11 760.47 639.98 757.97 640.11 755.48 640.64 753.12 641.55 750.89 642.74 748.79 644.18 746.95 645.89 745.37 647.86 745.37 647.72 739.34 655.99 733.17 664 726.61 671.87 719.78 679.49 712.82 686.84 705.61 694.05 697.99 701.01 690.38 707.57 682.37 714 674.24 720.04 665.84 725.95 657.3 731.46 648.64 736.71 639.72 741.7 630.66 746.42 621.47 750.75 612.02 754.82 602.57 758.5 592.99 761.91 583.28 765.06 573.43 767.82 563.59 770.18 553.62 772.28 543.51 774.12 533.4 775.43 523.3 776.61 513.19 777.27 502.95 777.66 492.72 777.79" fill="#b7da80"/><polygon points="832.79 526.05 832.66 523.56 832.13 521.2 831.34 518.84 830.16 516.6 828.85 514.63 827.14 512.8 825.31 511.09 823.21 509.78 820.98 508.73 818.61 508.07 816.12 507.68 813.63 507.55 811.26 507.81 808.77 508.33 806.54 509.25 804.31 510.44 802.34 511.88 800.5 513.59 799.06 515.55 797.74 517.65 796.82 520.02 796.17 522.38 795.77 524.87 795.77 527.24 796.17 529.73 796.82 532.09 797.74 534.45 799.06 536.55 800.5 538.52 802.34 540.23 804.31 541.67 806.54 542.85 808.77 543.77 811.26 544.3 813.63 544.56 816.12 544.43 818.61 544.03 820.98 543.38 823.21 542.33 825.31 541.02 827.14 539.31 828.85 537.47 830.16 535.5 831.34 533.27 832.13 530.91 832.66 528.55 832.79 526.05" fill="#b7da80"/></g><polygon id="ER_dot" data-name="ER dot" points="444.68 651.4 444.55 647.86 444.02 644.44 443.23 641.03 442.05 637.75 440.61 634.6 438.9 631.58 436.93 628.69 434.7 626.07 432.21 623.71 429.45 621.47 426.57 619.5 423.55 617.93 420.27 616.49 416.98 615.44 413.57 614.78 410.16 614.39 406.62 614.25 403.2 614.52 399.79 615.04 396.38 615.96 393.1 617.14 389.95 618.72 386.93 620.42 384.17 622.52 381.55 624.89 379.18 627.38 377.08 630.14 375.25 633.02 373.67 636.17 372.36 639.46 371.44 642.74 370.78 646.15 370.39 649.69 370.39 653.11 370.78 656.65 371.44 660.06 372.36 663.34 373.67 666.62 375.25 669.77 377.08 672.66 379.18 675.42 381.55 677.91 384.17 680.27 386.93 682.37 389.95 684.08 393.1 685.65 396.38 686.84 399.79 687.75 403.2 688.28 406.62 688.54 410.16 688.41 413.57 688.02 416.98 687.36 420.27 686.31 423.55 684.87 426.57 683.29 429.45 681.32 432.21 679.09 434.7 676.73 436.93 674.11 438.9 671.22 440.61 668.2 442.05 665.05 443.23 661.77 444.02 658.36 444.55 654.94 444.68 651.4" fill="#f3723e"/><polyline id="ER" points="384.17 545.74 657.04 685.26 657.04 685.13 659.93 686.44 663.08 687.49 666.23 688.15 669.38 688.54 672.66 688.54 675.94 688.15 679.09 687.49 682.11 686.44 685.13 685.13 687.89 683.55 690.51 681.72 693 679.49 695.11 677.12 697.07 674.5 698.65 671.61 699.96 668.72 701.01 665.57 701.67 662.42 702.06 659.27 702.06 655.99 701.67 652.71 701.01 649.56 699.96 646.54 698.65 643.52 697.07 640.77 695.24 638.14 693 635.65 690.64 633.55 688.02 631.58 685.13 630 685.26 630 526.97 549.15 609.14 549.15 609.14 549.02 614.65 548.89 620.16 548.37 625.54 547.58 630.92 546.4 636.3 544.95 641.55 543.25 646.54 541.15 651.53 538.78 656.39 536.16 661.11 533.14 665.57 529.99 669.77 526.45 673.84 522.77 677.65 518.84 681.32 514.63 684.61 510.3 687.75 505.71 690.51 500.99 693 496 695.24 491.01 697.21 485.89 698.78 480.64 700.09 475.26 701.01 469.88 701.67 464.37 702.06 458.85 702.06 453.34 701.67 447.83 701.01 442.32 700.09 436.93 698.78 431.55 697.21 426.3 695.24 421.18 693 416.2 690.51 411.21 687.75 406.48 684.61 401.89 681.32 397.56 677.65 393.36 673.84 389.42 669.77 385.75 665.57 382.2 661.11 379.05 656.39 376.03 651.53 373.41 646.54 371.05 641.55 368.95 636.3 367.24 630.92 365.8 625.54 364.62 620.16 363.83 614.65 363.3 609.14 363.17 609.14 363.04 433.13 363.04 429.72 362.91 426.3 362.38 423.02 361.6 419.87 360.42 416.72 358.97 413.83 357.13 411.08 355.17 408.58 352.8 406.22 350.31 404.25 347.55 402.42 344.67 400.97 341.51 399.79 338.37 399 335.08 398.48 331.67 398.35 328.26 398.48 324.85 399 321.43 399.79 318.15 400.97 315 402.42 311.85 404.25 308.96 406.22 306.21 408.58 303.71 411.08 301.35 413.83 299.38 416.72 297.55 419.87 296.1 423.02 294.92 426.3 294.13 429.72 293.61 433.13 293.48 433.13 293.35 609.12 293.35 612.4 293.21 615.55 292.69 618.71 291.77 621.72 290.72 624.61 289.15 627.37 287.44 629.86 285.34 632.09 283.11 634.19 280.62 635.9 277.86 637.47 274.97 638.52 271.95 639.44 268.8 639.97 265.65 640.1 262.37 639.97 259.09 639.44 255.94 638.52 252.79 637.47 249.77 635.9 246.88 634.19 244.13 632.09 241.63 629.86 239.4 627.37 237.3 624.61 235.6 621.72 234.02 618.71 232.97 615.55 232.05 612.4 231.53 609.12 231.4 609.12 231.26 433.13 231.26 429.72 231.13 426.3 230.61 423.02 229.82 419.87 228.64 416.72 227.19 413.83 225.36 411.08 223.39 408.58 221.03 406.22 218.53 404.25 215.78 402.42 212.89 400.97 209.74 399.79 206.59 399 203.31 398.48 199.9 398.35 196.48 398.48 193.07 399 189.66 399.79 186.38 400.97 183.23 402.42 180.08 404.25 177.19 406.22 174.43 408.58 171.94 411.08 169.58 413.83 167.61 416.72 165.77 419.87 164.33 423.02 163.15 426.3 162.36 429.72 161.83 433.13 161.7 433.13 161.57 640.11 161.57 643.39 161.44 646.54 160.91 649.69 160 652.71 158.94 655.6 157.37 658.36 155.66 660.85 153.56 663.08 151.33 665.18 148.84 666.89 146.08 668.46 143.19 669.51 140.18 670.43 137.03 670.96 133.88 671.09 130.59 670.96 127.31 670.43 124.16 669.51 121.01 668.46 118 666.89 115.11 665.18 112.35 663.08 109.86 660.85 107.63 658.36 105.53 655.6 103.82 652.71 102.25 649.69 101.19 646.54 100.28 643.39 99.75 640.11 99.62 433.13 99.62 427.48 99.75 421.97 100.28 416.33 101.06 410.81 102.25 405.43 103.69 400.05 105.39 394.93 107.5 389.81 109.86 384.83 112.48 380.1 115.5 375.51 118.65 371.05 122.06 366.85 125.87 362.91 129.81 359.1 134.01 355.69 138.34 352.41 142.93 349.39 147.79 346.76 152.65 344.4 157.76 342.3 162.88 340.46 168.26 339.02 173.65 337.84 179.16 336.92 184.67 336.4 190.31 336.26 195.96 336.4 201.6 336.79 207.11 337.58 212.63 338.76 218.14 340.2 223.65 341.91 229.03 343.88 234.15 346.24 239.27 348.87 244.26 351.75 249.11 354.9 253.71 358.45 258.17 362.12 262.37 358.45 266.57 354.9 271.03 351.75 275.63 348.87 280.48 346.24 285.47 343.88 290.59 341.91 295.71 340.2 301.09 338.76 306.6 337.58 312.12 336.79 317.63 336.4 323.14 336.26 328.78 336.4 334.43 336.92 340.07 337.84 345.58 339.02 351.1 340.46 356.48 342.3 361.86 344.4 366.98 346.76 372.1 349.39 376.95 352.41 381.81 355.69 386.4 359.1 390.73 362.91 394.93 366.85 398.87 371.05 402.68 375.51 406.09 380.1 409.24 384.83 412.26 389.81 414.88 394.93 417.25 400.05 419.35 405.43 421.05 410.81 422.5 416.33 423.68 421.97 424.47 427.48 424.99 433.13 425.12 609.14 425.12 612.42 425.25 615.57 425.78 618.72 426.7 621.74 427.75 624.62 429.32 627.38 431.03 629.87 433.13 632.11 435.36 634.21 437.85 635.91 440.61 637.49 443.5 638.54 446.52 639.46 449.67 639.98 452.82 640.11 456.1 639.98 459.38 639.46 462.53 638.54 465.68 637.49 468.7 635.91 471.58 634.21 474.34 632.11 476.83 629.87 479.07 627.38 481.17 624.62 482.87 621.74 484.45 618.72 485.5 615.57 486.42 612.42 486.94 609.14 487.07 398.35 487.07 395.2 487.2 392.05 487.73 388.9 488.52 386.01 489.7 383.12 491.01 380.5 492.72 378 494.69 375.64 496.92 373.67 499.41 371.83 502.04 370.39 504.79 369.08 507.81 368.29 510.83 367.63 513.98 367.37 517.13 367.5 520.28 367.9 523.43 368.55 526.58 369.6 529.47 370.92 532.35 372.49 535.11 374.46 537.74 376.56 540.1 378.92 542.2 381.55 544.03 384.3 545.61" fill="#f3723e"/></svg>